# xmcd
#
# Track frame offsets:
#	182
#	14920
#	26295
#	41157
#	51900
#	68445
#	82470
#	93910
#	112142
#	124085
#
# Disc length: 1856 seconds
#
# Revision: 3
# Processed by: cddbd v1.5.2PL0 Copyright (c) Steve Scherf et al.
# Submitted via: EZCDAudioConverter 6.0.8.1
#
DISCID=8a073e0a
DTITLE=Larry Boone - Swingin' Doors, Sandust Floors
DYEAR=1989
DGENRE=Country
TTITLE0=I Just Called Tosay Goodbye Again
TTITLE1=Blue Collar Dollar
TTITLE2=It`S Our Year To See The Bluebird
TTITLE3=Wine Me Up
TTITLE4=Fool's Paradise
TTITLE5=Beyond The Blue Neon
TTITLE6=I`M Not Fool Enough To Fool Around
TTITLE7=Old Coyote Town
TTITLE8=Ten Times Texas
TTITLE9=Under A Lone Star Moon
EXTD=
EXTT0=
EXTT1=
EXTT2=
EXTT3=
EXTT4=
EXTT5=
EXTT6=
EXTT7=
EXTT8=
EXTT9=
PLAYORDER=
